<?xml version="1.0" standalone="no"?>
<!DOCTYPE svg PUBLIC "-//W3C//DTD SVG 20010904//EN"
 "http://www.w3.org/TR/2001/REC-SVG-20010904/DTD/svg10.dtd">
<svg version="1.0" xmlns="http://www.w3.org/2000/svg"
 width="720.000000pt" height="378.000000pt" viewBox="0 0 720.000000 378.000000"
 preserveAspectRatio="xMidYMid meet">

<g transform="translate(0.000000,378.000000) scale(0.100000,-0.100000)"
fill="#000000" stroke="none">
<path d="M3374 2516 c-3 -8 -4 -25 -1 -38 3 -18 5 -16 6 9 l1 32 63 4 62 3
-63 2 c-46 2 -64 -2 -68 -12z"/>
<path d="M3712 2498 c-27 -27 5 -73 38 -53 16 10 12 52 -6 59 -20 8 -18 8 -32
-6z"/>
<path d="M3480 2448 c-12 -22 -12 -22 6 -6 10 10 15 20 12 24 -4 3 -12 -5 -18
-18z"/>
<path d="M3376 2436 c4 -11 17 -16 43 -15 34 2 34 2 6 6 -16 3 -36 10 -43 15
-9 8 -11 7 -6 -6z"/>
<path d="M3551 2301 c-9 -6 -11 -18 -7 -36 6 -22 11 -26 39 -23 28 3 32 7 35
33 3 27 0 31 -25 33 -15 1 -34 -2 -42 -7z"/>
</g>
</svg>
